<svg version="1.0" xmlns="http://www.w3.org/2000/svg"
 width="780.000000pt" height="780.000000pt" viewBox="0 0 780.000000 780.000000"
 preserveAspectRatio="xMidYMid meet">

<g transform="translate(0.000000,780.000000) scale(0.100000,-0.100000)"
fill="#ffffff" stroke="none">
<path
        d="M3495 7715 c-1102 -121 -2085 -694 -2719 -1585 -135 -190 -202 -300
-301 -496 -194 -381 -314 -766 -382 -1229 -15 -98 -18 -187 -18 -485 0 -383 8
-483 56 -740 300 -1581 1560 -2809 3144 -3065 381 -62 861 -62 1240 0 874 142
1671 580 2249 1235 524 593 835 1278 941 2070 23 166 30 526 16 731 -60 856
-370 1614 -924 2260 -340 396 -746 707 -1232 944 -398 194 -814 312 -1273 360
-171 18 -629 18 -797 0z m830 -109 c1058 -129 1991 -683 2610 -1551 351 -493
570 -1044 655 -1654 68 -481 42 -950 -77 -1416 -341 -1335 -1398 -2379 -2741
-2709 -303 -74 -532 -101 -877 -101 -444 0 -773 53 -1179 190 -1303 437 -2274
1576 -2495 2925 -39 238 -46 339 -46 645 1 232 5 328 19 425 46 327 107 572
213 850 334 878 988 1603 1822 2021 419 209 857 337 1291 378 63 6 133 13 155
15 89 9 528 -4 650 -18z"
      />
      <path
        d="M3880 6430 c-474 -70 -877 -242 -1240 -528 -189 -149 -447 -433 -562
-617 -122 -195 -205 -367 -271 -561 -40 -116 -87 -298 -102 -396 -5 -35 -11
-40 -148 -118 -470 -271 -557 -323 -557 -334 0 -6 157 -101 348 -210 191 -110
348 -200 350 -202 2 -1 14 -53 27 -115 85 -405 255 -761 519 -1089 75 -92 156
-180 167 -180 5 0 9 513 9 1141 0 1098 1 1145 20 1237 121 590 697 976 1280
857 216 -44 408 -152 565 -316 119 -124 196 -251 250 -409 57 -166 55 -115 55
-1746 0 -1310 2 -1504 15 -1504 8 0 80 14 161 31 1020 212 1810 1020 1999
2043 83 450 40 937 -120 1372 -90 244 -264 545 -427 739 -430 512 -998 823
-1662 910 -166 21 -512 19 -676 -5z"
      />
      <path
        d="M3385 4606 c-131 -41 -237 -172 -251 -312 -13 -121 30 -237 115 -317
74 -70 126 -90 241 -95 124 -5 186 17 270 95 78 72 112 142 118 244 11 179
-93 336 -253 384 -58 18 -185 18 -240 1z"
      />
    </g>
</svg>
